<svg xmlns="http://www.w3.org/2000/svg" viewBox="0 0 63.999998 63.999998" height="64" width="64"><rect width="4.129" height="17.892" x="29.935" y="46.108" rx="2.065" ry="2.065" fill="#b3b3b3"/><rect ry="2.065" rx="2.065" x="29.935" height="17.892" width="4.129" fill="#7b7b7b"/><rect ry="2.065" rx="2.065" y="25.82" x="41.649" height="17.892" width="4.129" transform="rotate(30)" fill="#ababab"/><rect width="4.129" height="17.892" x="41.649" y="-20.287" rx="2.065" ry="2.065" transform="rotate(30)" fill="#d9d9d9"/><rect width="4.129" height="17.892" x="41.648" y="2.395" rx="2.065" ry="2.065" transform="rotate(60)" fill="#a4a4a4"/><rect ry="2.065" rx="2.065" y="-43.713" x="41.648" height="17.892" width="4.129" transform="rotate(60)" fill="#d2d2d2"/><rect ry="2.065" rx="2.065" y="-17.892" x="29.935" height="17.892" width="4.129" transform="rotate(90)" fill="#9c9c9c"/><rect width="4.129" height="17.892" x="29.935" y="-64" rx="2.065" ry="2.065" transform="rotate(90)" fill="#cacaca"/><rect width="4.129" height="17.892" x="9.648" y="-29.604" rx="2.065" ry="2.065" transform="rotate(120)" fill="#939393"/><rect ry="2.065" rx="2.065" y="-75.712" x="9.648" height="17.892" width="4.129" transform="rotate(120)" fill="#c2c2c2"/><rect ry="2.065" rx="2.065" y="-29.605" x="-13.777" height="17.892" width="4.129" transform="rotate(150)" fill="#8d8d8d"/><rect width="4.129" height="17.892" x="-13.777" y="-75.713" rx="2.065" ry="2.065" transform="rotate(150)" fill="#bbb"/></svg>